# xmcd
#
# Track frame offsets: 
#        150
#        13811
#        28206
#        39969
#        49209
#        60392
#        74851
#        87509
#        97559
#        111353
#        124675
#        135946
#        146104
#        158727
#        171778
#        183497
#        194180
#        207352
#        218790
#        230907
#        243342
#        254167
#        265441
#        279550
#
# Disc length: 3887 seconds
#
# Revision: 10
# Processed by: cddbd v1.5.2PL0 Copyright (c) Steve Scherf et al.
# Submitted via: ExactAudioCopy v0.99pb5
#
DISCID=770f2d18
DTITLE=Nat King Cole - CD 1 - Harlem Swing
DYEAR=1900
DGENRE=Jazz
TTITLE0=Dixie Jamboree
TTITLE1=There's No Anesthetic For Love
TTITLE2=Ta-De-Ah
TTITLE3=Riffin' At The Bar-B-Q
TTITLE4=Harlem Swing
TTITLE5=I Lost Control Of Myself
TTITLE6=The Land Of Make Believe
TTITLE7=That ''Please Be Mineable'' Feeling
TTITLE8=Dancing In The Street
TTITLE9=You 're So Different
TTITLE10=I Wouldn't Have Known It
TTITLE11=Let's Get Happy
TTITLE12=I Like To Riff
TTITLE13=On The Sunny Side Of The Street
TTITLE14=Black Spider Stomp
TTITLE15=By The River Sainte Marie
TTITLE16=Sweet Lorraine
TTITLE17=Honeysuckle Rose
TTITLE18=Gone With The Draft
TTITLE19=This Side Up
TTITLE20=Babs
TTITLE21=Scotchin' With The Soda
TTITLE22=Slow Down
TTITLE23=Early Morning Blues
EXTD=
EXTT0=
EXTT1=
EXTT2=
EXTT3=
EXTT4=
EXTT5=
EXTT6=
EXTT7=
EXTT8=
EXTT9=
EXTT10=
EXTT11=
EXTT12=
EXTT13=
EXTT14=
EXTT15=
EXTT16=
EXTT17=
EXTT18=
EXTT19=
EXTT20=
EXTT21=
EXTT22=
EXTT23=
PLAYORDER=
